<mxfile host="65bd71144e">
    <diagram id="ez2AQ2qYyONGx_Xx0tES" name="LayerDemo">
        <mxGraphModel dx="1135" dy="768" grid="1" gridSize="10" guides="1" tooltips="1" connect="1" arrows="1" fold="1" page="1" pageScale="1" pageWidth="1100" pageHeight="850" math="0" shadow="0">
            <root>
                <mxCell id="0"/>
                <mxCell id="1" parent="0"/>
                <mxCell id="2" value="Pool" style="swimlane;childLayout=stackLayout;resizeParent=1;resizeParentMax=0;horizontal=0;startSize=20;horizontalStack=0;html=1;" parent="1" vertex="1">
                    <mxGeometry x="370" y="170" width="480" height="360" as="geometry"/>
                </mxCell>
                <mxCell id="3" value="Lane 1" style="swimlane;startSize=20;horizontal=0;html=1;" parent="2" vertex="1">
                    <mxGeometry x="20" width="460" height="120" as="geometry">
                        <mxRectangle x="20" width="460" height="30" as="alternateBounds"/>
                    </mxGeometry>
                </mxCell>
                <mxCell id="9" style="edgeStyle=none;html=1;entryX=0;entryY=0.5;entryDx=0;entryDy=0;" parent="3" source="6" target="7" edge="1">
                    <mxGeometry relative="1" as="geometry"/>
                </mxCell>
                <mxCell id="6" value="" style="shape=delay;whiteSpace=wrap;html=1;" parent="3" vertex="1">
                    <mxGeometry x="80" y="40" width="80" height="40" as="geometry"/>
                </mxCell>
                <mxCell id="10" style="edgeStyle=none;html=1;entryX=0;entryY=0.5;entryDx=0;entryDy=0;" parent="3" source="7" target="8" edge="1">
                    <mxGeometry relative="1" as="geometry"/>
                </mxCell>
                <mxCell id="7" value="" style="shape=delay;whiteSpace=wrap;html=1;" parent="3" vertex="1">
                    <mxGeometry x="200" y="40" width="80" height="40" as="geometry"/>
                </mxCell>
                <mxCell id="8" value="" style="shape=delay;whiteSpace=wrap;html=1;" parent="3" vertex="1">
                    <mxGeometry x="320" y="40" width="80" height="40" as="geometry"/>
                </mxCell>
                <mxCell id="4" value="Lane 2" style="swimlane;startSize=20;horizontal=0;html=1;" parent="2" vertex="1">
                    <mxGeometry x="20" y="120" width="460" height="120" as="geometry"/>
                </mxCell>
                <mxCell id="11" value="" style="shape=offPageConnector;whiteSpace=wrap;html=1;" parent="4" vertex="1">
                    <mxGeometry x="200" y="30" width="80" height="80" as="geometry"/>
                </mxCell>
                <mxCell id="14" style="edgeStyle=none;html=1;" parent="4" source="12" target="11" edge="1">
                    <mxGeometry relative="1" as="geometry"/>
                </mxCell>
                <mxCell id="12" value="" style="shape=display;whiteSpace=wrap;html=1;" parent="4" vertex="1">
                    <mxGeometry x="320" y="50" width="80" height="40" as="geometry"/>
                </mxCell>
                <mxCell id="5" value="Lane 3" style="swimlane;startSize=20;horizontal=0;html=1;" parent="2" vertex="1">
                    <mxGeometry x="20" y="240" width="460" height="120" as="geometry"/>
                </mxCell>
                <mxCell id="15" value="" style="shape=loopLimit;whiteSpace=wrap;html=1;" parent="5" vertex="1">
                    <mxGeometry x="190" y="20" width="100" height="80" as="geometry"/>
                </mxCell>
                <mxCell id="13" style="edgeStyle=none;html=1;entryX=0;entryY=0;entryDx=40;entryDy=0;entryPerimeter=0;" parent="2" source="8" target="12" edge="1">
                    <mxGeometry relative="1" as="geometry"/>
                </mxCell>
                <mxCell id="16" value="" style="edgeStyle=none;html=1;" parent="2" source="11" target="15" edge="1">
                    <mxGeometry relative="1" as="geometry"/>
                </mxCell>
                <mxCell id="17" value="Vertical Tree Layout" style="swimlane;startSize=20;horizontal=1;childLayout=treeLayout;horizontalTree=0;resizable=0;containerType=tree;fontSize=12;" parent="1" vertex="1">
                    <mxGeometry x="410" y="290" width="280" height="190" as="geometry"/>
                </mxCell>
                <mxCell id="18" value="Root" style="whiteSpace=wrap;html=1;" parent="17" vertex="1">
                    <mxGeometry x="90" y="40" width="100" height="40" as="geometry"/>
                </mxCell>
                <mxCell id="19" value="Child 1" style="whiteSpace=wrap;html=1;" parent="17" vertex="1">
                    <mxGeometry x="20" y="130" width="100" height="40" as="geometry"/>
                </mxCell>
                <mxCell id="20" value="" style="edgeStyle=elbowEdgeStyle;elbow=vertical;html=1;rounded=1;curved=0;sourcePerimeterSpacing=0;targetPerimeterSpacing=0;startSize=6;endSize=6;" parent="17" source="18" target="19" edge="1">
                    <mxGeometry relative="1" as="geometry"/>
                </mxCell>
                <mxCell id="21" value="Child 2" style="whiteSpace=wrap;html=1;" parent="17" vertex="1">
                    <mxGeometry x="160" y="130" width="100" height="40" as="geometry"/>
                </mxCell>
                <mxCell id="22" value="" style="edgeStyle=elbowEdgeStyle;elbow=vertical;html=1;rounded=1;curved=0;sourcePerimeterSpacing=0;targetPerimeterSpacing=0;startSize=6;endSize=6;" parent="17" source="18" target="21" edge="1">
                    <mxGeometry relative="1" as="geometry"/>
                </mxCell>
            </root>
        </mxGraphModel>
    </diagram>
    <diagram id="cXdBv4LuWflCS9I6Zu3K" name="Page-2">
        <mxGraphModel dx="1135" dy="768" grid="1" gridSize="10" guides="1" tooltips="1" connect="1" arrows="1" fold="1" page="1" pageScale="1" pageWidth="1100" pageHeight="850" math="0" shadow="0">
            <root>
                <mxCell id="0"/>
                <mxCell id="1" parent="0"/>
                <mxCell id="qgYKwVF7N7ul_nGFUVFg-1" value="Vertical Tree Layout" style="swimlane;startSize=20;horizontal=1;childLayout=treeLayout;horizontalTree=0;resizable=0;containerType=tree;fontSize=12;direction=east;" parent="1" vertex="1">
                    <mxGeometry x="20" y="180" width="980" height="280" as="geometry"/>
                </mxCell>
                <mxCell id="qgYKwVF7N7ul_nGFUVFg-27" style="edgeStyle=none;html=1;entryX=0;entryY=0.5;entryDx=0;entryDy=0;" parent="qgYKwVF7N7ul_nGFUVFg-1" source="qgYKwVF7N7ul_nGFUVFg-2" target="qgYKwVF7N7ul_nGFUVFg-19" edge="1">
                    <mxGeometry relative="1" as="geometry"/>
                </mxCell>
                <mxCell id="qgYKwVF7N7ul_nGFUVFg-30" style="edgeStyle=none;html=1;entryX=1;entryY=0.5;entryDx=0;entryDy=0;exitX=0.5;exitY=1;exitDx=0;exitDy=0;" parent="qgYKwVF7N7ul_nGFUVFg-1" source="qgYKwVF7N7ul_nGFUVFg-2" target="qgYKwVF7N7ul_nGFUVFg-22" edge="1">
                    <mxGeometry relative="1" as="geometry"/>
                </mxCell>
                <mxCell id="qgYKwVF7N7ul_nGFUVFg-2" value="Root" style="whiteSpace=wrap;html=1;" parent="qgYKwVF7N7ul_nGFUVFg-1" vertex="1">
                    <mxGeometry x="440" y="40" width="100" height="40" as="geometry"/>
                </mxCell>
                <mxCell id="qgYKwVF7N7ul_nGFUVFg-3" value="Child 1" style="whiteSpace=wrap;html=1;" parent="qgYKwVF7N7ul_nGFUVFg-1" vertex="1">
                    <mxGeometry x="20" y="130" width="100" height="40" as="geometry"/>
                </mxCell>
                <mxCell id="qgYKwVF7N7ul_nGFUVFg-4" value="" style="edgeStyle=elbowEdgeStyle;elbow=vertical;html=1;rounded=1;curved=0;sourcePerimeterSpacing=0;targetPerimeterSpacing=0;startSize=6;endSize=6;" parent="qgYKwVF7N7ul_nGFUVFg-1" source="qgYKwVF7N7ul_nGFUVFg-2" target="qgYKwVF7N7ul_nGFUVFg-3" edge="1">
                    <mxGeometry relative="1" as="geometry"/>
                </mxCell>
                <mxCell id="qgYKwVF7N7ul_nGFUVFg-5" value="Child 2" style="whiteSpace=wrap;html=1;" parent="qgYKwVF7N7ul_nGFUVFg-1" vertex="1">
                    <mxGeometry x="160" y="130" width="100" height="40" as="geometry"/>
                </mxCell>
                <mxCell id="qgYKwVF7N7ul_nGFUVFg-6" value="" style="edgeStyle=elbowEdgeStyle;elbow=vertical;html=1;rounded=1;curved=0;sourcePerimeterSpacing=0;targetPerimeterSpacing=0;startSize=6;endSize=6;" parent="qgYKwVF7N7ul_nGFUVFg-1" source="qgYKwVF7N7ul_nGFUVFg-2" target="qgYKwVF7N7ul_nGFUVFg-5" edge="1">
                    <mxGeometry relative="1" as="geometry"/>
                </mxCell>
                <mxCell id="qgYKwVF7N7ul_nGFUVFg-10" style="edgeStyle=none;html=1;entryX=0.5;entryY=0;entryDx=0;entryDy=0;exitX=0.5;exitY=1;exitDx=0;exitDy=0;" parent="qgYKwVF7N7ul_nGFUVFg-1" source="qgYKwVF7N7ul_nGFUVFg-2" target="qgYKwVF7N7ul_nGFUVFg-7" edge="1">
                    <mxGeometry relative="1" as="geometry">
                        <mxPoint x="-730" y="50" as="sourcePoint"/>
                    </mxGeometry>
                </mxCell>
                <mxCell id="qgYKwVF7N7ul_nGFUVFg-7" value="Child 2" style="whiteSpace=wrap;html=1;" parent="qgYKwVF7N7ul_nGFUVFg-1" vertex="1">
                    <mxGeometry x="580" y="130" width="100" height="40" as="geometry"/>
                </mxCell>
                <mxCell id="qgYKwVF7N7ul_nGFUVFg-19" value="Child 2" style="whiteSpace=wrap;html=1;" parent="qgYKwVF7N7ul_nGFUVFg-1" vertex="1">
                    <mxGeometry x="300" y="130" width="100" height="40" as="geometry"/>
                </mxCell>
                <mxCell id="qgYKwVF7N7ul_nGFUVFg-22" value="Child 2" style="whiteSpace=wrap;html=1;" parent="qgYKwVF7N7ul_nGFUVFg-1" vertex="1">
                    <mxGeometry x="720" y="130" width="100" height="40" as="geometry"/>
                </mxCell>
                <mxCell id="qgYKwVF7N7ul_nGFUVFg-24" value="Root" style="whiteSpace=wrap;html=1;" parent="qgYKwVF7N7ul_nGFUVFg-1" vertex="1">
                    <mxGeometry x="860" y="220" width="100" height="40" as="geometry"/>
                </mxCell>
                <mxCell id="qgYKwVF7N7ul_nGFUVFg-28" value="" style="edgeStyle=none;html=1;" parent="qgYKwVF7N7ul_nGFUVFg-1" source="qgYKwVF7N7ul_nGFUVFg-2" target="qgYKwVF7N7ul_nGFUVFg-29" edge="1">
                    <mxGeometry relative="1" as="geometry"/>
                </mxCell>
                <mxCell id="qgYKwVF7N7ul_nGFUVFg-29" value="Root" style="whiteSpace=wrap;html=1;" parent="qgYKwVF7N7ul_nGFUVFg-1" vertex="1">
                    <mxGeometry x="440" y="130" width="100" height="40" as="geometry"/>
                </mxCell>
                <mxCell id="qgYKwVF7N7ul_nGFUVFg-26" value="Root" style="whiteSpace=wrap;html=1;" parent="qgYKwVF7N7ul_nGFUVFg-1" vertex="1">
                    <mxGeometry x="860" y="130" width="100" height="40" as="geometry"/>
                </mxCell>
                <mxCell id="qgYKwVF7N7ul_nGFUVFg-25" value="" style="edgeStyle=none;html=1;" parent="qgYKwVF7N7ul_nGFUVFg-1" source="qgYKwVF7N7ul_nGFUVFg-2" target="qgYKwVF7N7ul_nGFUVFg-26" edge="1">
                    <mxGeometry relative="1" as="geometry"/>
                </mxCell>
                <mxCell id="qgYKwVF7N7ul_nGFUVFg-23" value="" style="edgeStyle=none;html=1;exitX=0.58;exitY=1.063;exitDx=0;exitDy=0;exitPerimeter=0;" parent="qgYKwVF7N7ul_nGFUVFg-1" source="qgYKwVF7N7ul_nGFUVFg-26" target="qgYKwVF7N7ul_nGFUVFg-24" edge="1">
                    <mxGeometry relative="1" as="geometry"/>
                </mxCell>
                <mxCell id="qgYKwVF7N7ul_nGFUVFg-8" value="" style="edgeStyle=elbowEdgeStyle;elbow=vertical;html=1;rounded=1;curved=0;sourcePerimeterSpacing=0;targetPerimeterSpacing=0;startSize=6;endSize=6;" parent="1" source="1" target="qgYKwVF7N7ul_nGFUVFg-7" edge="1">
                    <mxGeometry relative="1" as="geometry">
                        <mxPoint x="470" y="390" as="sourcePoint"/>
                        <mxPoint x="540" y="440" as="targetPoint"/>
                    </mxGeometry>
                </mxCell>
                <mxCell id="qgYKwVF7N7ul_nGFUVFg-20" value="" style="edgeStyle=elbowEdgeStyle;elbow=vertical;html=1;rounded=1;curved=0;sourcePerimeterSpacing=0;targetPerimeterSpacing=0;startSize=6;endSize=6;" parent="1" source="1" target="qgYKwVF7N7ul_nGFUVFg-19" edge="1">
                    <mxGeometry relative="1" as="geometry">
                        <mxPoint x="470" y="390" as="sourcePoint"/>
                        <mxPoint x="540" y="440" as="targetPoint"/>
                    </mxGeometry>
                </mxCell>
                <mxCell id="qgYKwVF7N7ul_nGFUVFg-21" value="" style="edgeStyle=elbowEdgeStyle;elbow=vertical;html=1;rounded=1;curved=0;sourcePerimeterSpacing=0;targetPerimeterSpacing=0;startSize=6;endSize=6;" parent="1" source="1" target="qgYKwVF7N7ul_nGFUVFg-22" edge="1">
                    <mxGeometry relative="1" as="geometry">
                        <mxPoint x="760" y="770" as="sourcePoint"/>
                        <mxPoint x="830" y="820" as="targetPoint"/>
                    </mxGeometry>
                </mxCell>
            </root>
        </mxGraphModel>
    </diagram>
    <diagram id="2GGsly9W45ZW1jJz2xG_" name="Page-3">
        <mxGraphModel dx="1135" dy="768" grid="1" gridSize="10" guides="1" tooltips="1" connect="1" arrows="1" fold="1" page="1" pageScale="1" pageWidth="1100" pageHeight="850" math="0" shadow="0">
            <root>
                <mxCell id="0"/>
                <mxCell id="1" parent="0"/>
            </root>
        </mxGraphModel>
    </diagram>
</mxfile>
